<svg width="1557" height="653" viewBox="0 0 1557 653" fill="none" xmlns="http://www.w3.org/2000/svg">
<path opacity="0.0946098" d="M310.646 566.268L376.135 438.606C380.192 430.697 379.722 421.189 374.896 413.718L296.921 293.107C292.068 285.622 283.602 281.28 274.718 281.718L131.269 288.741C122.371 289.207 114.389 294.344 110.332 302.253L44.8431 429.915C40.7859 437.824 41.2555 447.332 46.0816 454.803L124.057 575.414C128.883 582.885 137.349 587.228 146.259 586.804L289.709 579.78C298.593 579.342 306.589 574.177 310.646 566.268Z" fill="url(#paint0_linear_6_25)"/>
<path opacity="0.0946098" d="M1244 94.8543L1213.78 235.116C1211.91 243.806 1214.83 252.868 1221.42 258.835L1327.96 355.155C1334.58 361.129 1343.88 363.133 1352.35 360.41L1489.09 316.498C1497.57 313.746 1503.95 306.717 1505.82 298.028L1536.04 157.766C1537.91 149.076 1534.99 140.014 1528.4 134.047L1421.86 37.7271C1415.27 31.7599 1405.97 29.7561 1397.47 32.472L1260.72 76.3839C1252.26 79.1063 1245.87 86.1648 1244 94.8543Z" fill="url(#paint1_linear_6_25)"/>
<path opacity="0.0946098" d="M497.139 578.224L528.896 516.316C530.869 512.471 530.64 507.874 528.287 504.256L490.476 445.76C488.123 442.142 484.027 440.04 479.716 440.24L410.147 443.652C405.835 443.852 401.954 446.374 399.996 450.192L368.238 512.1C366.265 515.946 366.495 520.542 368.847 524.16L406.659 582.656C409.011 586.275 413.107 588.376 417.418 588.176L486.988 584.764C491.272 584.55 495.18 582.042 497.139 578.224Z" fill="url(#paint2_linear_6_25)"/>
<path opacity="0.0946098" d="M1060.77 131.573L1046.11 199.592C1045.2 203.817 1046.61 208.197 1049.82 211.083L1101.49 257.8C1104.7 260.686 1109.2 261.656 1113.31 260.347L1179.62 239.045C1183.74 237.736 1186.83 234.296 1187.74 230.101L1202.39 162.082C1203.3 157.857 1201.89 153.477 1198.68 150.591L1147.02 103.874C1143.81 100.988 1139.31 100.019 1135.19 101.328L1068.88 122.629C1064.8 123.944 1061.67 127.378 1060.77 131.573Z" fill="url(#paint3_linear_6_25)"/>
<path opacity="0.0946098" d="M445.022 410.971L460.075 381.626C461.013 379.798 460.883 377.63 459.802 375.905L441.876 348.175C440.754 346.463 438.815 345.468 436.769 345.556L403.79 347.172C401.745 347.259 399.921 348.46 398.984 350.287L383.93 379.632C382.993 381.459 383.123 383.627 384.204 385.353L402.129 413.082C403.252 414.795 405.191 415.789 407.236 415.702L440.216 414.086C442.248 413.957 444.084 412.798 445.022 410.971Z" fill="url(#paint4_linear_6_25)"/>
<path opacity="0.0946098" d="M1154.4 279.639L1147.45 311.88C1147.02 313.888 1147.7 315.948 1149.19 317.335L1173.69 339.48C1175.21 340.844 1177.34 341.303 1179.3 340.689L1210.73 330.593C1212.69 329.979 1214.14 328.347 1214.57 326.34L1221.52 294.098C1221.95 292.091 1221.26 290.03 1219.77 288.643L1195.28 266.498C1193.75 265.134 1191.62 264.675 1189.67 265.289L1158.23 275.386C1156.3 276.036 1154.83 277.631 1154.4 279.639Z" fill="url(#paint5_linear_6_25)"/>
<defs>
<linearGradient id="paint0_linear_6_25" x1="287.334" y1="284.447" x2="133.626" y2="584.083" gradientUnits="userSpaceOnUse">
<stop stop-color="#D4145A"/>
<stop offset="1" stop-color="#2E3192"/>
</linearGradient>
<linearGradient id="paint1_linear_6_25" x1="1339.46" y1="361.039" x2="1410.38" y2="31.8301" gradientUnits="userSpaceOnUse">
<stop stop-color="#D4145A"/>
<stop offset="1" stop-color="#2E3192"/>
</linearGradient>
<linearGradient id="paint2_linear_6_25" x1="485.83" y1="441.506" x2="411.272" y2="586.847" gradientUnits="userSpaceOnUse">
<stop stop-color="#D4145A"/>
<stop offset="1" stop-color="#2E3192"/>
</linearGradient>
<linearGradient id="paint3_linear_6_25" x1="1107.08" y1="260.707" x2="1141.48" y2="101.02" gradientUnits="userSpaceOnUse">
<stop stop-color="#D4145A"/>
<stop offset="1" stop-color="#2E3192"/>
</linearGradient>
<linearGradient id="paint4_linear_6_25" x1="439.662" y1="346.178" x2="404.324" y2="415.064" gradientUnits="userSpaceOnUse">
<stop stop-color="#D4145A"/>
<stop offset="1" stop-color="#2E3192"/>
</linearGradient>
<linearGradient id="paint5_linear_6_25" x1="1176.34" y1="340.836" x2="1192.65" y2="265.151" gradientUnits="userSpaceOnUse">
<stop stop-color="#D4145A"/>
<stop offset="1" stop-color="#2E3192"/>
</linearGradient>
</defs>
</svg>
